<svg width="320" height="100" viewBox="0 0 320 100" fill="none" xmlns="http://www.w3.org/2000/svg">
<g clip-path="url(#clip0_21_24243)">
<path fill-rule="evenodd" clip-rule="evenodd" d="M48.4331 43.3651C45.3153 44.4675 43.3052 46.779 42.7011 49.956C42.3908 51.5874 42.4508 60.4127 42.7828 61.98C42.9345 62.696 43.0291 63.3133 42.9929 63.3516C42.957 63.3902 42.4581 63.1671 41.8847 62.8556C37.7813 60.6286 37.0261 55.7437 40.2917 52.5515C41.3752 51.4925 41.4423 51.3691 41.576 50.1895L41.7172 48.9449L40.695 49.4614C37.0548 51.3008 35.1843 55.6568 36.3407 59.6013C36.7807 61.1023 38.0831 63.0047 39.2453 63.8438C41.0129 65.1204 48.402 69.2425 49.7132 69.6836L51.02 70.1233L49.7217 70.8445C47.2691 72.2075 45.6349 72.294 43.3574 71.1818C41.4356 70.2435 40.1507 68.4676 39.9432 66.4635C39.8818 65.87 39.7669 65.3845 39.6878 65.3845C39.6086 65.3845 39.1359 65.074 38.6372 64.694L37.7302 64.0036L37.6113 64.8698C37.3406 66.8387 38.2649 69.644 39.7358 71.3193C40.6841 72.3993 42.4926 73.4951 43.9967 73.9011C45.6401 74.3447 47.8607 74.2184 49.2601 73.6016C51.3024 72.7018 58.4743 68.4453 59.478 67.5375C60.0564 67.0144 60.5981 66.5862 60.6818 66.5862C61.0177 66.5862 60.5624 70.0798 60.0934 71.1009C58.77 73.9835 55.3259 75.4511 52.2875 74.4278L51.0267 74.0031L49.8496 74.48L48.6723 74.9571L49.5349 75.5802C50.6959 76.4189 52.6661 77 54.3479 77C58.0708 77 61.3347 74.6762 62.5133 71.186C62.8401 70.2187 62.8833 69.3891 62.8833 64.0829C62.8833 59.7615 62.8127 57.883 62.6313 57.3915C62.4929 57.0156 62.4191 56.6688 62.4672 56.6207C62.6379 56.4503 64.6408 57.6697 65.4052 58.4095C66.7586 59.7192 67.0999 60.5996 67.0992 62.7811C67.099 64.4613 67.0354 64.8038 66.5559 65.7124C66.257 66.2784 65.5683 67.1345 65.0254 67.6149C64.0918 68.4415 64.0309 68.5567 63.9018 69.7493L63.7652 71.0098L64.8069 70.4833C67.4064 69.1698 69.0899 66.6924 69.496 63.5822C69.7823 61.3911 68.7054 58.4249 67.0403 56.8182C65.8336 55.6532 57.6839 50.9151 55.7941 50.2795L54.479 49.8371L55.769 49.1193C56.4784 48.7246 57.4658 48.2928 57.9628 48.1601C59.7353 47.6862 62.023 48.3341 63.6699 49.776C64.6226 50.6101 65.5946 52.5921 65.5946 53.701C65.5946 54.1791 65.6719 54.5702 65.7665 54.5702C65.8612 54.5702 66.3484 54.8822 66.8494 55.2637L67.7604 55.9574L67.8931 55.0738C68.0634 53.9413 67.7002 51.9467 67.0886 50.6576C65.6024 47.5248 62.1844 45.549 58.7057 45.8113C57.8965 45.8722 56.8787 46.0683 56.4438 46.2465C54.6956 46.9641 47.001 51.5179 45.9835 52.4373L44.9087 53.4088L44.9107 51.6363C44.9123 50.1935 45.0006 49.6777 45.3862 48.8626C46.7575 45.9631 50.2147 44.499 53.2606 45.5279L54.4826 45.9407L55.6379 45.4727L56.793 45.0045L56.1225 44.4946C54.8336 43.5143 53.5787 43.1119 51.5362 43.0244C49.9629 42.9569 49.4188 43.0166 48.4331 43.3651ZM55.8592 53.1413C57.6304 53.9678 58.6387 54.9579 59.5203 56.7369C60.213 58.1345 60.2725 58.3905 60.2725 59.9774C60.2725 61.5644 60.213 61.8202 59.5203 63.2178C58.6283 65.0178 57.6303 65.9867 55.7785 66.8515C54.6179 67.3933 54.2306 67.4725 52.7412 67.4725C51.2476 67.4725 50.8658 67.3938 49.6883 66.8444C47.9694 66.0416 46.6597 64.7356 45.8548 63.0216C45.3037 61.8475 45.2248 61.4667 45.2248 59.9774C45.2248 58.488 45.3037 58.1073 45.8548 56.9331C47.6842 53.0373 52.0722 51.3741 55.8592 53.1413ZM51.4474 56.06C49.6443 56.7246 48.6343 58.1309 48.6343 59.9774C48.6343 63.2078 51.9875 65.1193 54.848 63.5193C56.9447 62.3465 57.525 59.3784 56.0381 57.4342C55.0404 56.1297 52.9533 55.505 51.4474 56.06Z" fill="url(#paint0_linear_21_24243)"/>
<path d="M85.8516 66.0098V48.9072H88.341V56.2827H96.9165V48.9072H99.4176V66.0098H96.9165V58.6224H88.341V66.0098H85.8516Z" fill="white"/>
<path d="M107.992 66.3657C106.714 66.3657 105.59 66.0886 104.621 65.5343C103.661 64.9721 102.91 64.1923 102.37 63.1946C101.838 62.189 101.572 61.0251 101.572 59.7028C101.572 58.3014 101.834 57.086 102.358 56.0567C102.89 55.0274 103.629 54.2316 104.574 53.6694C105.519 53.1073 106.618 52.8262 107.873 52.8262C109.183 52.8262 110.299 53.131 111.22 53.7407C112.141 54.3424 112.828 55.2015 113.28 56.318C113.741 57.4344 113.923 58.7606 113.828 60.2967H111.339V59.394C111.323 57.9055 111.037 56.8049 110.481 56.0923C109.933 55.3797 109.096 55.0234 107.968 55.0234C106.722 55.0234 105.785 55.4153 105.157 56.1992C104.53 56.9831 104.216 58.1153 104.216 59.596C104.216 61.0053 104.53 62.0979 105.157 62.8739C105.785 63.6419 106.69 64.0259 107.873 64.0259C108.651 64.0259 109.322 63.8517 109.886 63.5034C110.457 63.1472 110.902 62.6405 111.22 61.9832L113.661 62.7552C113.161 63.9032 112.403 64.7941 111.386 65.4276C110.37 66.053 109.238 66.3657 107.992 66.3657ZM103.406 60.2967V58.3608H112.589V60.2967H103.406Z" fill="white"/>
<path d="M121.765 51.7096C121.137 51.7096 120.561 51.5552 120.037 51.2464C119.521 50.9376 119.108 50.5259 118.799 50.0112C118.489 49.4965 118.334 48.9225 118.334 48.2891H120.311C120.311 48.685 120.454 49.0254 120.74 49.3105C121.026 49.5955 121.367 49.738 121.765 49.738C122.169 49.738 122.511 49.5955 122.789 49.3105C123.075 49.0254 123.218 48.685 123.218 48.2891H125.195C125.195 48.9225 125.04 49.4965 124.73 50.0112C124.42 50.5259 124.004 50.9376 123.48 51.2464C122.963 51.5552 122.392 51.7096 121.765 51.7096ZM126.862 53.1823V66.0092H124.468V57.0898L118.037 66.0092H116.012V53.1823H118.406V61.9236L124.849 53.1823H126.862Z" fill="white"/>
<path d="M135.754 66.3657C134.523 66.3657 133.491 66.0688 132.657 65.475C131.823 64.8732 131.192 64.0616 130.763 63.0403C130.334 62.0188 130.12 60.8668 130.12 59.5841C130.12 58.3014 130.33 57.1493 130.751 56.1279C131.18 55.1065 131.807 54.3029 132.633 53.7169C133.467 53.1231 134.491 52.8262 135.706 52.8262C136.913 52.8262 137.953 53.1231 138.827 53.7169C139.708 54.3029 140.387 55.1065 140.863 56.1279C141.34 57.1414 141.578 58.2935 141.578 59.5841C141.578 60.8668 141.34 62.0228 140.863 63.0521C140.395 64.0736 139.724 64.8812 138.85 65.475C137.985 66.0688 136.953 66.3657 135.754 66.3657ZM129.703 71.7103V53.1825H131.918V62.4108H132.204V71.7103H129.703ZM135.408 64.121C136.202 64.121 136.857 63.9192 137.373 63.5154C137.898 63.1116 138.287 62.5692 138.541 61.8881C138.803 61.1994 138.934 60.4313 138.934 59.5841C138.934 58.7448 138.803 57.9847 138.541 57.3037C138.287 56.6228 137.894 56.0804 137.362 55.6766C136.829 55.2728 136.151 55.0709 135.325 55.0709C134.547 55.0709 133.904 55.2609 133.395 55.641C132.895 56.021 132.522 56.5515 132.276 57.2325C132.038 57.9134 131.918 58.6973 131.918 59.5841C131.918 60.4709 132.038 61.2548 132.276 61.9357C132.514 62.6166 132.891 63.151 133.407 63.539C133.923 63.927 134.59 64.121 135.408 64.121Z" fill="white"/>
<path d="M149.318 66.3657C148.032 66.3657 146.916 66.0766 145.971 65.4986C145.027 64.9206 144.296 64.125 143.78 63.1116C143.272 62.0901 143.018 60.9143 143.018 59.5841C143.018 58.246 143.28 57.0702 143.804 56.0567C144.328 55.0353 145.062 54.2435 146.007 53.6813C146.952 53.1112 148.056 52.8262 149.318 52.8262C150.604 52.8262 151.72 53.1152 152.665 53.6932C153.61 54.2712 154.341 55.0669 154.857 56.0804C155.373 57.0939 155.631 58.2618 155.631 59.5841C155.631 60.9222 155.369 62.1019 154.845 63.1234C154.329 64.1368 153.598 64.9326 152.653 65.5106C151.708 66.0806 150.597 66.3657 149.318 66.3657ZM149.318 64.0259C150.549 64.0259 151.466 63.6143 152.07 62.7908C152.681 61.9594 152.987 60.8905 152.987 59.5841C152.987 58.246 152.677 57.177 152.058 56.3773C151.446 55.5697 150.533 55.1659 149.318 55.1659C148.484 55.1659 147.798 55.3559 147.258 55.736C146.718 56.1081 146.317 56.6268 146.055 57.2919C145.793 57.949 145.662 58.7131 145.662 59.5841C145.662 60.9301 145.971 62.007 146.591 62.8146C147.21 63.6223 148.119 64.0259 149.318 64.0259Z" fill="white"/>
<path d="M163.274 66.3657C161.956 66.3657 160.836 66.0728 159.915 65.4868C158.994 64.901 158.287 64.0972 157.795 63.0759C157.311 62.0545 157.064 60.8945 157.057 59.596C157.064 58.2737 157.319 57.1058 157.819 56.0923C158.319 55.0709 159.034 54.2712 159.963 53.6932C160.892 53.1152 162.007 52.8262 163.31 52.8262C164.715 52.8262 165.914 53.1746 166.906 53.8713C167.907 54.5681 168.566 55.5222 168.884 56.7336L166.406 57.4463C166.16 56.7257 165.755 56.1675 165.191 55.7716C164.636 55.3678 163.996 55.1659 163.274 55.1659C162.456 55.1659 161.785 55.3599 161.261 55.7479C160.737 56.1279 160.348 56.6505 160.094 57.3156C159.84 57.9807 159.709 58.7408 159.701 59.596C159.709 60.9182 160.01 61.9872 160.606 62.8026C161.209 63.6183 162.099 64.0259 163.274 64.0259C164.076 64.0259 164.723 63.8439 165.215 63.4797C165.715 63.1076 166.097 62.577 166.359 61.8881L168.884 62.4821C168.463 63.733 167.768 64.695 166.799 65.3681C165.831 66.0332 164.656 66.3657 163.274 66.3657Z" fill="white"/>
<path d="M176.539 66.3657C175.261 66.3657 174.137 66.0886 173.168 65.5343C172.207 64.9721 171.457 64.1923 170.917 63.1946C170.385 62.189 170.119 61.0251 170.119 59.7028C170.119 58.3014 170.381 57.086 170.905 56.0567C171.437 55.0274 172.176 54.2316 173.121 53.6694C174.066 53.1073 175.165 52.8262 176.42 52.8262C177.73 52.8262 178.846 53.131 179.767 53.7407C180.688 54.3424 181.375 55.2015 181.827 56.318C182.288 57.4344 182.47 58.7606 182.375 60.2967H179.886V59.394C179.87 57.9055 179.584 56.8049 179.028 56.0923C178.48 55.3797 177.643 55.0234 176.515 55.0234C175.268 55.0234 174.331 55.4153 173.704 56.1992C173.077 56.9831 172.763 58.1153 172.763 59.596C172.763 61.0053 173.077 62.0979 173.704 62.8739C174.331 63.6419 175.237 64.0259 176.42 64.0259C177.198 64.0259 177.869 63.8517 178.433 63.5034C179.004 63.1472 179.449 62.6405 179.767 61.9832L182.208 62.7552C181.708 63.9032 180.95 64.7941 179.933 65.4276C178.917 66.053 177.786 66.3657 176.539 66.3657ZM171.953 60.2967V58.3608H181.136V60.2967H171.953Z" fill="white"/>
<path d="M187.567 66.0095V55.4155H183.172V53.1826H194.451V55.4155H190.056V66.0095H187.567Z" fill="white"/>
<path d="M207.075 53.1826V66.0095H204.681V57.0901L198.249 66.0095H196.225V53.1826H198.619V61.9239L205.062 53.1826H207.075Z" fill="white"/>
<path d="M210.355 66.0095V63.3848H212.988V66.0095H210.355Z" fill="white"/>
<path d="M221.769 66.3657C220.451 66.3657 219.331 66.0728 218.411 65.4868C217.49 64.901 216.783 64.0972 216.291 63.0759C215.807 62.0545 215.561 60.8945 215.553 59.596C215.561 58.2737 215.815 57.1058 216.315 56.0923C216.815 55.0709 217.53 54.2712 218.458 53.6932C219.388 53.1152 220.504 52.8262 221.806 52.8262C223.211 52.8262 224.409 53.1746 225.403 53.8713C226.402 54.5681 227.062 55.5222 227.38 56.7336L224.902 57.4463C224.656 56.7257 224.251 56.1675 223.687 55.7716C223.131 55.3678 222.493 55.1659 221.769 55.1659C220.952 55.1659 220.281 55.3599 219.756 55.7479C219.233 56.1279 218.845 56.6505 218.589 57.3156C218.336 57.9807 218.205 58.7408 218.197 59.596C218.205 60.9182 218.507 61.9872 219.102 62.8026C219.705 63.6183 220.595 64.0259 221.769 64.0259C222.572 64.0259 223.219 63.8439 223.711 63.4797C224.211 63.1076 224.594 62.577 224.854 61.8881L227.38 62.4821C226.958 63.733 226.264 64.695 225.296 65.3681C224.327 66.0332 223.151 66.3657 221.769 66.3657Z" fill="white"/>
<path d="M234.567 66.3657C233.28 66.3657 232.164 66.0766 231.219 65.4986C230.275 64.9206 229.544 64.125 229.028 63.1116C228.521 62.0901 228.266 60.9143 228.266 59.5841C228.266 58.246 228.528 57.0702 229.051 56.0567C229.577 55.0353 230.311 54.2435 231.256 53.6813C232.2 53.1112 233.304 52.8262 234.567 52.8262C235.853 52.8262 236.968 53.1152 237.913 53.6932C238.859 54.2712 239.589 55.0669 240.105 56.0804C240.621 57.0939 240.879 58.2618 240.879 59.5841C240.879 60.9222 240.617 62.1019 240.094 63.1234C239.578 64.1368 238.846 64.9326 237.902 65.5106C236.957 66.0806 235.845 66.3657 234.567 66.3657ZM234.567 64.0259C235.798 64.0259 236.715 63.6143 237.319 62.7908C237.929 61.9594 238.236 60.8905 238.236 59.5841C238.236 58.246 237.926 57.177 237.306 56.3773C236.695 55.5697 235.781 55.1659 234.567 55.1659C233.734 55.1659 233.046 55.3559 232.507 55.736C231.967 56.1081 231.566 56.6268 231.303 57.2919C231.041 57.949 230.909 58.7131 230.909 59.5841C230.909 60.9301 231.219 62.007 231.839 62.8146C232.459 63.6223 233.367 64.0259 234.567 64.0259Z" fill="white"/>
<path d="M258.433 66.0099L258.444 58.0168C258.444 57.0905 258.207 56.3699 257.729 55.8553C257.254 55.3327 256.626 55.0714 255.848 55.0714C255.372 55.0714 254.934 55.1822 254.539 55.4039C254.148 55.6177 253.831 55.9424 253.585 56.3778C253.346 56.8054 253.228 57.3438 253.228 57.9931L252.024 57.3874C252.01 56.4847 252.199 55.6929 252.597 55.012C253.002 54.3311 253.55 53.8045 254.24 53.4324C254.931 53.0523 255.706 52.8623 256.563 52.8623C257.952 52.8623 259.028 53.278 259.79 54.1094C260.552 54.9407 260.935 56.0453 260.935 57.423L260.922 66.0099H258.433ZM243.008 66.0099V53.183H245.223V56.8885H245.509V66.0099H243.008ZM250.726 66.0099L250.739 58.0643C250.739 57.13 250.5 56.3976 250.024 55.8671C249.555 55.3366 248.925 55.0714 248.13 55.0714C247.344 55.0714 246.709 55.3406 246.224 55.879C245.748 56.4174 245.509 57.1221 245.509 57.9931L244.319 57.233C244.319 56.3937 244.521 55.6454 244.926 54.9882C245.331 54.3311 245.88 53.8124 246.571 53.4324C247.262 53.0523 248.042 52.8623 248.915 52.8623C249.829 52.8623 250.608 53.0563 251.251 53.4443C251.895 53.8243 252.382 54.3588 252.715 55.0476C253.058 55.7365 253.228 56.5362 253.228 57.4468L253.217 66.0099H250.726Z" fill="white"/>
</g>
<defs>
<linearGradient id="paint0_linear_21_24243" x1="36" y1="60" x2="70" y2="60" gradientUnits="userSpaceOnUse">
<stop stop-color="#89F8E7"/>
<stop offset="0.191783" stop-color="#8AEFEA"/>
<stop offset="0.432333" stop-color="#8DCBF1"/>
<stop offset="0.600774" stop-color="#90A8F9"/>
<stop offset="0.787903" stop-color="#9397FB"/>
<stop offset="1" stop-color="#CF7FEF"/>
</linearGradient>
<clipPath id="clip0_21_24243">
<rect width="225" height="34" fill="white" transform="translate(35.5 43)"/>
</clipPath>
</defs>
</svg>
